<svg width="96" height="96" viewBox="0 0 64 64" fill="none" xmlns="http://www.w3.org/2000/svg">
  <!-- Tang Nails brand mark — the Lacquer "polish drop" glyph, for use in the
       staff invitation email. Source of truth for public/email/tang-nails-logo.png
       (96×96, transparent). Fills are the sRGB hex equivalents of the Lacquer
       rose ramp used in the hosted invite template (#b95466 / #d49aa3) so the
       hosted inline-SVG mark and this hosted PNG render identically. Re-export
       the PNG with `node scripts/build-email-logo.mjs` after editing. -->
  <path
    d="M32 4c-9 0-16 7-16 18 0 8 3 14 6 22 2 6 4 12 4 16 0 0 2 0 6 0s6 0 6 0c0-4 2-10 4-16 3-8 6-14 6-22 0-11-7-18-16-18z"
    fill="#b95466"
  />
  <path
    d="M32 4c-9 0-16 7-16 18 0 4 1 8 2 11 4-3 9-5 14-5s10 2 14 5c1-3 2-7 2-11 0-11-7-18-16-18z"
    fill="#d49aa3"
  />
</svg>
